<?xml version="1.0" encoding="iso-8859-1"?>
<!-- Uploaded to: SVG Repo, www.svgrepo.com, Generator: SVG Repo Mixer Tools -->
<svg fill="#000000" height="800px" width="800px" version="1.1" id="Layer_1" xmlns="http://www.w3.org/2000/svg" xmlns:xlink="http://www.w3.org/1999/xlink" 
	 viewBox="0 0 512.001 512.001" xml:space="preserve">
<g>
	<g>
		<path d="M72.274,485.548c-0.192-0.939-0.484-1.864-0.851-2.744c-0.367-0.895-0.822-1.746-1.35-2.539
			c-0.528-0.807-1.145-1.556-1.82-2.231c-0.675-0.675-1.424-1.292-2.231-1.82c-0.792-0.528-1.644-0.983-2.539-1.35
			c-0.881-0.367-1.805-0.646-2.744-0.837c-1.893-0.382-3.83-0.382-5.724,0c-0.939,0.191-1.864,0.47-2.744,0.837
			c-0.895,0.367-1.746,0.822-2.539,1.35c-0.807,0.528-1.556,1.145-2.231,1.82c-0.675,0.675-1.292,1.424-1.82,2.231
			c-0.528,0.792-0.983,1.644-1.35,2.539c-0.367,0.881-0.66,1.804-0.837,2.744c-0.191,0.939-0.294,1.908-0.294,2.86
			c0,0.954,0.103,1.924,0.294,2.876c0.176,0.926,0.47,1.851,0.837,2.744c0.367,0.882,0.822,1.733,1.35,2.526
			c0.528,0.807,1.145,1.556,1.82,2.231c0.675,0.675,1.424,1.291,2.231,1.834c0.792,0.528,1.644,0.983,2.539,1.35
			c0.881,0.367,1.805,0.646,2.744,0.837c0.939,0.191,1.908,0.277,2.862,0.277s1.923-0.088,2.862-0.277
			c0.939-0.191,1.864-0.47,2.744-0.837c0.895-0.367,1.746-0.822,2.539-1.35c0.807-0.543,1.556-1.159,2.231-1.834
			c0.675-0.675,1.292-1.424,1.82-2.231c0.528-0.793,0.983-1.644,1.35-2.526c0.367-0.894,0.66-1.818,0.851-2.744
			c0.191-0.952,0.279-1.923,0.279-2.876C72.553,487.455,72.465,486.485,72.274,485.548z"/>
	</g>
</g>
<g>
	<g>
		<path d="M475.843,485.548c-0.176-0.939-0.47-1.864-0.837-2.744c-0.367-0.895-0.822-1.746-1.35-2.539
			c-0.527-0.807-1.143-1.556-1.82-2.231c-0.675-0.675-1.424-1.292-2.231-1.82c-0.793-0.528-1.644-0.983-2.539-1.35
			c-0.881-0.367-1.804-0.646-2.743-0.837c-1.893-0.382-3.845-0.382-5.724,0c-0.939,0.191-1.864,0.47-2.744,0.837
			c-0.895,0.367-1.745,0.822-2.537,1.35c-0.809,0.528-1.557,1.145-2.232,1.82c-0.675,0.675-1.292,1.424-1.82,2.231
			c-0.527,0.792-0.983,1.644-1.35,2.539c-0.367,0.881-0.66,1.804-0.851,2.744c-0.191,0.939-0.277,1.908-0.277,2.86
			c0,0.954,0.088,1.924,0.277,2.876c0.191,0.926,0.484,1.851,0.851,2.744c0.367,0.882,0.807,1.733,1.35,2.526
			c0.528,0.807,1.145,1.556,1.82,2.231c0.675,0.675,1.424,1.291,2.232,1.834c0.792,0.528,1.642,0.983,2.537,1.35
			c0.882,0.367,1.805,0.646,2.744,0.837c0.939,0.191,1.908,0.277,2.862,0.277c0.952,0,1.923-0.088,2.862-0.277
			c0.939-0.191,1.864-0.47,2.743-0.837c0.895-0.367,1.746-0.822,2.539-1.35c0.807-0.543,1.556-1.159,2.231-1.834
			c0.677-0.675,1.293-1.424,1.82-2.231c0.528-0.793,0.983-1.644,1.35-2.526c0.367-0.894,0.646-1.818,0.836-2.744
			c0.191-0.952,0.294-1.923,0.294-2.876C476.137,487.455,476.034,486.485,475.843,485.548z"/>
	</g>
</g>
<g>
	<g>
		<path d="M497.324,105.494H318.22c-2.419-24.123-12.812-46.539-30.041-64.176c-20.408-20.894-47.733-32.4-76.941-32.4
			s-56.533,11.507-76.941,32.4c-17.229,17.639-27.621,40.055-30.04,64.176H14.676C6.57,105.494,0,112.065,0,120.169v73.994
			c0,8.104,6.57,14.676,14.676,14.676h28.525v235.546c0,8.104,6.57,14.676,14.676,14.676s14.676-6.572,14.676-14.676V208.839h33.433
			l2.489,98.406v151.531c0,8.104,6.57,14.676,14.676,14.676s14.676-6.572,14.676-14.676v-137h146.792v137
			c0,8.104,6.572,14.676,14.676,14.676s14.676-6.572,14.676-14.676v-92.415h132.816v78.024c0,8.104,6.572,14.676,14.676,14.676
			s14.676-6.572,14.676-14.676v-90.09c0.153-0.848,0.245-1.717,0.245-2.609v-78.761v-64.085h20.942
			c8.104,0,14.676-6.572,14.676-14.676v-73.994C512,112.065,505.43,105.494,497.324,105.494z M29.352,179.488v-44.642h74.76
			l1.13,44.642H29.352z M284.652,292.425H137.825v-37.25h146.827V292.425z M289.384,119.791c0,0.003,0,0.004,0,0.007l-1.871,73.994
			c0,0.004,0,0.01,0,0.015l-0.81,32.015H135.775l-2.719-107.519c-0.496-21.229,7.401-41.285,22.238-56.476
			c14.839-15.192,34.707-23.559,55.944-23.559c21.236,0,41.104,8.367,55.944,23.558c14.839,15.192,22.737,35.253,22.24,56.456
			L289.384,119.791z M446.786,337.009H323.264V287.6h123.522V337.009z M446.786,258.248H323.264v-49.409h123.522V258.248z
			 M461.706,179.488h-144.47l1.129-44.642h164.283v44.642H461.706z"/>
	</g>
</g>
</svg>